<svg version="1" xmlns="http://www.w3.org/2000/svg" width="533.333" height="533.333" viewBox="0 0 400.000000 400.000000"><path d="M95.9 131.8C83.2 156.1 77 167.9 69.5 182c-10.1 19.1-16.4 30.9-24.5 46.5-3.4 6.6-7.7 14.7-9.5 18-1.8 3.3-6 11.3-9.4 17.7L19.9 276l180.8-.1h180.8l-5-2.4c-5.5-2.6-13.2-6.1-30.5-14-10.6-4.8-15.6-7.2-34-15.7-29.8-13.9-33.2-15.1-41.2-15.2-4.1-.1-3.1.7 22.5 18.7 3.7 2.7 6.7 5 6.7 5.2 0 .3-3-1.5-6.7-3.8-3.8-2.4-12.9-8.1-20.3-12.7-10.9-6.7-41.7-26.5-42.8-27.5-.1-.1-.5-2.2-.8-4.6-.9-7.4-1.1-8.2-3.3-14.4-10.4-29.5-44.4-44.7-73.7-32.9l-6.5 2.6-4-2c-4-2-6.9-2-6.9 0 0 .5.7 2.3 1.6 4 1.6 3 1.5 3.1-1.8 6.5l-3.4 3.3-6.3-13.2c-6.6-13.7-11.9-22.3-17.9-29-6.1-6.7-6.2-6.7-11.3 3zm141.2 97.4c4.1 4.5 8.4 9.2 9.7 10.5 1.3 1.3 1.9 2.3 1.5 2.3-1.3-.1-20.3-18.7-20.3-19.9 0-2.3 1.9-.8 9.1 7.1zm14.4 14.8c.3.6-.1.7-.9.4-1.8-.7-2.1-1.4-.7-1.4.6 0 1.3.4 1.6 1z"/></svg>