<svg version="1" xmlns="http://www.w3.org/2000/svg" width="269.333" height="269.333" viewBox="0 0 202.000000 202.000000"><path d="M80.5 16.9C68.4 20.2 57.3 25 51 29.6c-5.6 4.1-7.4 6.4-5 6.4.5 0 1.2 1.1 1.6 2.5.3 1.4 1.3 2.5 2.1 2.5.9 0 2.4.9 3.3 2 1.8 2 1.8 2 5.4-2.8 11.2-15.3 28.8-23.3 45.4-20.4 29.9 5.1 48.3 37.2 44.3 77.4-1 11.2-1 12.2.6 13.4 1 .7 2.5 1.1 3.4.8.9-.2 2.5.3 3.4 1.2 1.1 1.1 3.5 1.8 6.6 1.9 4.7.2 4.9.1 6.7-3.9 3-6.3 4.2-13.7 4.2-24.9-.1-20.8-5.8-35.7-19-48.8-6.4-6.5-9.4-8.5-18.1-12.8-14-6.7-19.9-8.2-35.4-8.7-10.6-.3-14.3-.1-20 1.5zM29.7 56.5c-3.6 3.5-4.7 13.2-1.4 12 .7-.3 2.4.6 3.7 2 1.5 1.6 2.6 2.1 3.1 1.4.5-.8 1.2-.8 2.8.1 1.3.6 3.1.8 4.4.4 1.2-.5 2.5-.7 2.8-.6 1 .2 2-7.4 1.3-9.3-.4-.9-1.9-1.9-3.5-2.2-1.6-.3-3.1-1.3-3.4-2.2-.4-1.3-1.3-1.6-3.6-1.3-1.8.3-3.4 0-3.9-.7-.5-.9-1.1-.8-2.3.4z"/><path d="M89.5 66c-.3.5.3 1 1.5 1 2 0 2.1.4 1.8 6.2-.2 3.5.1 6.5.6 6.8 1 .6 3-4.7 4.1-10.8l.7-4.2h-4.1c-2.2 0-4.3.4-4.6 1zM101.1 77.9c-1.4.4-2.7 1.3-2.9 2-.3 1 0 1.2 1.2.8 2.7-1 3 1.7 1.2 10.6-2 10.1-2 9.7.2 9.7 1.5 0 2.2-1.6 3.7-8.2 1.3-5.9 2.6-8.9 4.3-10.5 3.2-3 4.2-2.9 4.2.3 0 2.1.4 2.5 2.3 2.2 1.7-.2 2.2-1 2.2-3.2 0-4.4-2.7-5.6-6.5-2.7l-3.2 2.3-1.4-2.1c-1.6-2.2-1.6-2.3-5.3-1.2zM30.4 85.7c-1 .7-2.5 1.1-3.2.8-.7-.3-2.3 0-3.4.6-1.8 1-1.9 1.7-1.3 6.7 2.2 18.5 11.4 35.3 25.8 47.2 7.5 6.2 20 12.4 28.5 14.1 3.4.7 6.2 1.6 6.2 1.9 0 1-23.3 9.8-28 10.5-3.3.6-5.5 1.8-8.4 4.6-3.3 3.4-3.8 4.3-3.2 7.1 1.4 6.8 7.5 9.9 11.6 5.8 2.2-2.2 2.7-6.9.8-8.8-1-1-.7-1.7 1-3.5 4.1-4 10.5-3.1 27 4.1 20.9 9 32.6 11.5 43.5 9.2l5.7-1.1-.4-3.5c-.3-2-.9-4.1-1.5-4.8-.6-.7-.8-1.5-.5-1.8.3-.4-1-.9-2.8-1.3-1.8-.4-7.6-2-12.8-3.5-14.6-4.5-22.7-6.1-30.1-6.2-3.8 0-6.9-.2-6.9-.3 0-.9 20.3-6.5 23.3-6.5 8.3 0 25.3-4.9 25.4-7.3 0-.7.2-1.7.3-2.2.1-.6.2-1.8.1-2.8-.1-1.7-.7-1.5-5.4 1.2-10.8 6.2-25.1 7.8-36.8 4.1-19.7-6-33.9-25-38.4-51C44.1 85.3 44 84.9 43 85.5c-.6.3-1.6.3-2.2-.2-2.1-1.2-8.5-1-10.4.4zM90.2 85.3c-.6.7-1.6 3.4-2.3 6-1 4-1.8 5.2-4.5 6.4-4.7 2.3-6.4.6-6.4-6.3 0-4.1-.4-5.4-1.5-5.4-3.4 0-4.8 8.7-2 12.7 2.1 2.9 5.9 3.7 9.6 1.7 2.3-1.1 3.4-1.3 4.2-.5 1.9 1.9 8.7 1.1 8.7-1 0-.5-.9-.9-2.1-.9-1.9 0-2-.4-1.3-7 .7-6.9 0-8.6-2.4-5.7zM120.1 96.3c-1.7 2.1-.3 4.9 2.3 4.5 1.5-.2 2.1-1 2.1-2.8 0-2.8-2.6-3.8-4.4-1.7zM138.4 128.3c-2.3 3.9-3.8 7.3-3.3 7.5.5.2.4 1.2-.1 2.3-.8 1.5-.7 1.7.4 1.3.8-.3 1.7-.1 2.1.5.3.6 1.5 1.1 2.6 1.1s1.7.4 1.4 1c-1.2 2 1.3.9 5.7-2.4 2.5-1.9 4.8-4.2 5.2-5.1.8-2.3.8-2.7-.3-2-.6.3-1.3-1.1-1.7-3.1-.5-2.8-1-3.5-2.5-3.1-1.3.4-2.1-.3-2.8-2.4-.5-1.6-1.4-2.9-1.8-2.9-.4 0-2.7 3.3-4.9 7.3z"/></svg>