<?xml version="1.0" standalone="no"?>
<!DOCTYPE svg PUBLIC "-//W3C//DTD SVG 20010904//EN"
 "http://www.w3.org/TR/2001/REC-SVG-20010904/DTD/svg10.dtd">
<svg version="1.0" xmlns="http://www.w3.org/2000/svg"
 width="400.000000pt" height="400.000000pt" viewBox="0 0 400.000000 400.000000"
 preserveAspectRatio="xMidYMid meet">
<metadata>
Created by potrace 1.11, written by Peter Selinger 2001-2013
</metadata>
<g transform="translate(0.000000,400.000000) scale(0.100000,-0.100000)"
fill="#000000" stroke="none">
<path d="M959 2682 c-127 -243 -189 -361 -264 -502 -101 -191 -164 -309 -245
-465 -34 -66 -77 -147 -95 -180 -18 -33 -60 -113 -94 -177 l-62 -118 1808 1
1808 0 -50 24 c-55 26 -132 61 -305 140 -106 48 -156 72 -340 157 -298 139
-332 151 -412 152 -41 1 -31 -7 225 -187 37 -27 67 -50 67 -52 0 -3 -30 15
-67 38 -38 24 -129 81 -203 127 -109 67 -417 265 -428 275 -1 1 -5 22 -8 46
-9 74 -11 82 -33 144 -104 295 -444 447 -737 329 l-65 -26 -40 20 c-40 20 -69
20 -69 0 0 -5 7 -23 16 -40 16 -30 15 -31 -18 -65 l-34 -33 -63 132 c-66 137
-119 223 -179 290 -61 67 -62 67 -113 -30z m1412 -974 c41 -45 84 -92 97 -105
13 -13 19 -23 15 -23 -13 1 -203 187 -203 199 0 23 19 8 91 -71z m144 -148 c3
-6 -1 -7 -9 -4 -18 7 -21 14 -7 14 6 0 13 -4 16 -10z"/>
</g>
</svg>
