<?xml version="1.0" standalone="no"?>
<!DOCTYPE svg PUBLIC "-//W3C//DTD SVG 20010904//EN"
 "http://www.w3.org/TR/2001/REC-SVG-20010904/DTD/svg10.dtd">
<svg version="1.0" xmlns="http://www.w3.org/2000/svg"
 width="202.000000pt" height="202.000000pt" viewBox="0 0 202.000000 202.000000"
 preserveAspectRatio="xMidYMid meet">
<metadata>
Created by potrace 1.11, written by Peter Selinger 2001-2013
</metadata>
<g transform="translate(0.000000,202.000000) scale(0.100000,-0.100000)"
fill="#000000" stroke="none">
<path d="M805 1851 c-121 -33 -232 -81 -295 -127 -56 -41 -74 -64 -50 -64 5 0
12 -11 16 -25 3 -14 13 -25 21 -25 9 0 24 -9 33 -20 18 -20 18 -20 54 28 112
153 288 233 454 204 299 -51 483 -372 443 -774 -10 -112 -10 -122 6 -134 10
-7 25 -11 34 -8 9 2 25 -3 34 -12 11 -11 35 -18 66 -19 47 -2 49 -1 67 39 30
63 42 137 42 249 -1 208 -58 357 -190 488 -64 65 -94 85 -181 128 -140 67
-199 82 -354 87 -106 3 -143 1 -200 -15z"/>
<path d="M297 1455 c-36 -35 -47 -132 -14 -120 7 3 24 -6 37 -20 15 -16 26
-21 31 -14 5 8 12 8 28 -1 13 -6 31 -8 44 -4 12 5 25 7 28 6 10 -2 20 74 13
93 -4 9 -19 19 -35 22 -16 3 -31 13 -34 22 -4 13 -13 16 -36 13 -18 -3 -34 0
-39 7 -5 9 -11 8 -23 -4z"/>
<path d="M895 1360 c-3 -5 3 -10 15 -10 20 0 21 -4 18 -62 -2 -35 1 -65 6 -68
10 -6 30 47 41 108 l7 42 -41 0 c-22 0 -43 -4 -46 -10z"/>
<path d="M1011 1241 c-14 -4 -27 -13 -29 -20 -3 -10 0 -12 12 -8 27 10 30 -17
12 -106 -20 -101 -20 -97 2 -97 15 0 22 16 37 82 13 59 26 89 43 105 32 30 42
29 42 -3 0 -21 4 -25 23 -22 17 2 22 10 22 32 0 44 -27 56 -65 27 l-32 -23
-14 21 c-16 22 -16 23 -53 12z"/>
<path d="M304 1163 c-10 -7 -25 -11 -32 -8 -7 3 -23 0 -34 -6 -18 -10 -19 -17
-13 -67 22 -185 114 -353 258 -472 75 -62 200 -124 285 -141 34 -7 62 -16 62
-19 0 -10 -233 -98 -280 -105 -33 -6 -55 -18 -84 -46 -33 -34 -38 -43 -32 -71
14 -68 75 -99 116 -58 22 22 27 69 8 88 -10 10 -7 17 10 35 41 40 105 31 270
-41 209 -90 326 -115 435 -92 l57 11 -4 35 c-3 20 -9 41 -15 48 -6 7 -8 15 -5
18 3 4 -10 9 -28 13 -18 4 -76 20 -128 35 -146 45 -227 61 -301 62 -38 0 -69
2 -69 3 0 9 203 65 233 65 83 0 253 49 254 73 0 7 2 17 3 22 1 6 2 18 1 28 -1
17 -7 15 -54 -12 -108 -62 -251 -78 -368 -41 -197 60 -339 250 -384 510 -24
137 -25 141 -35 135 -6 -3 -16 -3 -22 2 -21 12 -85 10 -104 -4z"/>
<path d="M902 1167 c-6 -7 -16 -34 -23 -60 -10 -40 -18 -52 -45 -64 -47 -23
-64 -6 -64 63 0 41 -4 54 -15 54 -34 0 -48 -87 -20 -127 21 -29 59 -37 96 -17
23 11 34 13 42 5 19 -19 87 -11 87 10 0 5 -9 9 -21 9 -19 0 -20 4 -13 70 7 69
0 86 -24 57z"/>
<path d="M1201 1057 c-17 -21 -3 -49 23 -45 15 2 21 10 21 28 0 28 -26 38 -44
17z"/>
<path d="M1384 737 c-23 -39 -38 -73 -33 -75 5 -2 4 -12 -1 -23 -8 -15 -7 -17
4 -13 8 3 17 1 21 -5 3 -6 15 -11 26 -11 11 0 17 -4 14 -10 -12 -20 13 -9 57
24 25 19 48 42 52 51 8 23 8 27 -3 20 -6 -3 -13 11 -17 31 -5 28 -10 35 -25
31 -13 -4 -21 3 -28 24 -5 16 -14 29 -18 29 -4 0 -27 -33 -49 -73z"/>
</g>
</svg>
